<?xml version="1.0" encoding="utf-8"?>
<!-- Generator: Adobe Illustrator 13.0.0, SVG Export Plug-In . SVG Version: 6.00 Build 14948)  -->
<!DOCTYPE svg PUBLIC "-//W3C//DTD SVG 1.1//EN" "http://www.w3.org/Graphics/SVG/1.1/DTD/svg11.dtd">
<svg version="1.1" xmlns="http://www.w3.org/2000/svg" xmlns:xlink="http://www.w3.org/1999/xlink" x="0px" y="0px" width="502px"
	 height="502px" viewBox="0 0 502 502" enable-background="new 0 0 502 502" xml:space="preserve">
<g id="Layer_1">
</g>
<g id="Layer_2">
	<path d="M421.9,0h-342c-44,0-80,36-80,80v342c0,44,36,80,80,80h342c44,0,80-36,80-80V80C501.9,36,465.9,0,421.9,0z M85.6,85.5h234
		c37.8,0,70.5,21.6,86.5,53.1H85.6V85.5z M85.6,224.4h321.2c-15.7,31.8-48.9,53.1-87.2,53.1h-234V224.4z M85.6,293.9h210L348,347
		H85.6V293.9z M416.3,416.5H85.6v-53.1h278.5l52.2,52.9V416.5z M416.3,189.5c-0.5,6.4-1.6,12.7-3.2,18.6H85.6V155h327
		c1.9,6.6,3.2,13.4,3.7,20.5V189.5z"/>
</g>
</svg>
